<?xml version="1.0"?>
<svg xmlns="http://www.w3.org/2000/svg" viewBox="0 0 192 192" width="512" height="512"><g id="_04-ccv" data-name="04-ccv"><g id="Glyph"><path d="M176,8H16A16.019,16.019,0,0,0,0,24V128a16.019,16.019,0,0,0,16,16H37.735A63.846,63.846,0,0,1,20.687,72H8V40H49.06a63.83,63.83,0,0,1,61.88,0H184V72H139.313a63.746,63.746,0,0,1-8.8,63.2l-5.682-5.682a56.055,56.055,0,1,0-11.314,11.314l40.824,40.824,11.314-11.314L139.314,144H176a16.019,16.019,0,0,0,16-16V24A16.019,16.019,0,0,0,176,8ZM80,136a40,40,0,1,1,40-40A40.045,40.045,0,0,1,80,136Z"/><circle cx="80" cy="96" r="8"/><circle cx="104" cy="96" r="8"/><circle cx="56" cy="96" r="8"/></g></g></svg>
